<svg width="48" height="48" viewBox="0 0 48 48" fill="none" xmlns="http://www.w3.org/2000/svg">
<path fill-rule="evenodd" clip-rule="evenodd" d="M33.8116 0L40.8599 6.98311L47.9083 13.9672L47.9541 23.889L48 33.8117L41.0159 40.86L34.0328 47.9084L24.11 47.9542L14.1883 47.9991L7.13998 41.016L0.0915327 34.0318L0.0456637 24.1101L0 14.1884L6.98403 7.14009L13.9671 0.091738L23.8899 0.0458752L33.8116 0ZM32.9126 2.19758L39.3157 8.5416L45.7188 14.8856L45.7606 23.8992L45.8014 32.9127L39.4574 39.3158L33.1134 45.719L24.0998 45.7597L15.0863 45.8015L8.6842 39.4575L2.28095 33.1135L2.23937 24.0999L2.19788 15.0864L8.5415 8.68328L14.8865 2.28116L23.899 2.23938L32.9126 2.19758ZM15.5328 46.6832H32.6883V46.9859H15.5328V46.6832ZM15.5328 46.0788H23.3364V46.3805H15.5328V46.0788ZM24.8847 46.0788H32.6883V46.3805H24.8847V46.0788ZM15.5328 47.2887H23.3364V47.5914H15.5328V47.2887ZM24.8847 47.2887H32.6883V47.5914H24.8847V47.2887ZM33.7718 45.5854L45.8493 33.3979L46.0644 33.6119L33.9869 45.7985L33.7718 45.5854ZM34.203 46.0125L46.2794 33.8249L46.4955 34.038L34.418 46.2255L34.203 46.0125ZM34.6331 46.4386L46.7106 34.252L46.9257 34.465L34.8492 46.6526L34.6331 46.4386ZM47.3538 24.6636H47.6555V32.4672H47.3538V24.6636ZM47.3538 15.3117H47.6555V23.1153H47.3538V15.3117ZM46.1398 15.3117H46.4425V32.4672H46.1398V15.3117ZM46.7453 15.3117H47.051V32.4672H46.7453V15.3117ZM34.6209 1.20276L40.1138 6.74664L39.9201 6.93827L34.4262 1.39439L34.6209 1.20276ZM41.2034 7.84644L46.6974 13.3903L46.5037 13.582L41.0098 8.03807L41.2034 7.84644ZM34.2325 1.58703L39.7265 7.13092L39.5328 7.32254L34.0389 1.77866L34.2325 1.58703ZM40.8161 8.23071L46.31 13.7746L46.1164 13.9662L40.6224 8.42234L40.8161 8.23071ZM33.8452 1.9713L39.3391 7.51518L39.1455 7.7068L33.6515 2.16293L33.8452 1.9713ZM40.4288 8.61397L45.9227 14.1579L45.729 14.3505L40.2351 8.80661L40.4288 8.61397ZM15.3197 0.936728H23.1264V1.23945H15.3197V0.936728ZM24.6747 0.936728H32.4783V1.23945H24.6747V0.936728ZM15.3197 0.328219H32.4783V0.634004H15.3197V0.328219ZM15.3197 1.54218H32.4783V1.8449H15.3197V1.54218ZM2.23213 14.5656L7.72607 9.02168L7.511 8.80865L2.01706 14.3515L2.23213 14.5656ZM8.81528 7.92188L14.3092 2.378L14.0941 2.16496L8.60021 7.70884L8.81528 7.92188ZM1.37073 13.7114L13.4483 1.52486L13.2333 1.3108L1.15576 13.4984L1.37073 13.7114ZM1.80138 14.1385L13.8781 1.95091L13.663 1.73788L1.58652 13.9255L1.80138 14.1385ZM0.383152 15.436H0.688937V23.2397H0.383152V15.436ZM0.383152 24.788H0.688937V32.5916H0.383152V24.788ZM0.991456 15.436H1.29408V23.2397H0.991456V15.436ZM0.991456 24.788H1.29408V32.5916H0.991456V24.788ZM1.59671 15.436H1.89934V32.5916H1.59712V15.436H1.59671ZM14.4845 45.7638L8.99161 40.2199L8.77553 40.434L14.2695 45.9779L14.4845 45.7638ZM7.90097 39.1211L2.40775 33.5772L2.19238 33.7903L7.68632 39.3342L7.90097 39.1211ZM14.0544 46.1909L8.56046 40.647L8.34539 40.86L13.8393 46.4039L14.0544 46.1909ZM7.47084 39.5472L1.9769 34.0033L1.76152 34.2174L7.25546 39.7612L7.47084 39.5472ZM13.6232 46.618L1.54666 34.4304L1.33139 34.6434L13.4086 46.831L13.6232 46.618Z" fill="#E6E8E6"/>
<path fill-rule="evenodd" clip-rule="evenodd" d="M35.684 29.2208L35.4129 28.8967L35.418 28.8926C35.154 28.5746 34.8879 28.2586 34.6229 27.9426C34.2437 27.4921 33.8649 27.0416 33.4864 26.591C32.8371 26.9621 32.0839 27.4758 32.1369 28.3014C32.1484 28.5301 32.21 28.7535 32.3173 28.9558C32.4997 29.2871 32.6373 29.759 32.3611 30.08C32.0879 30.397 31.6313 30.4633 31.2369 30.4633H27.8579L22.1295 30.4735C21.1643 30.4745 20.8391 30.1636 20.2694 29.441L20.197 29.3502L20.1002 29.2249L19.827 28.9028C19.562 28.5848 19.2966 28.2681 19.0309 27.9528C18.6528 27.5023 18.2726 27.0528 17.8954 26.6012C17.2462 26.9712 16.4929 27.485 16.5459 28.3116C16.5578 28.5399 16.6193 28.7629 16.7263 28.965C16.9088 29.2972 17.0464 29.7682 16.7702 30.0902C16.497 30.4072 16.0403 30.4735 15.6459 30.4735H4.46771V29.7641H15.2096C15.3768 29.7641 16.0618 29.7732 16.1688 29.6805C16.236 29.5592 16.1025 29.3604 16.0505 29.2483C15.9242 28.9772 15.7896 28.6459 15.7896 28.3432C15.7896 27.2312 16.5653 26.5717 17.4419 26.0539C17.0749 25.6217 16.709 25.1661 16.709 24.5678C16.709 23.6616 17.4408 23.0154 18.3297 23.0154C19.2083 23.0154 19.9004 23.6708 19.9004 24.5576C19.9004 25.3455 19.1675 25.8796 18.5315 26.2516L21.1154 29.338C21.4303 29.6815 21.6362 29.7641 22.1194 29.7641L27.8681 29.7539H30.8006C30.9678 29.7539 31.6527 29.7641 31.7597 29.6713C31.827 29.549 31.6935 29.3502 31.6415 29.2391C31.5141 28.968 31.3806 28.6367 31.3806 28.333C31.3806 27.221 32.1562 26.5615 33.0328 26.0447C32.6659 25.6125 32.3 25.1559 32.3 24.5576C32.3 23.6514 33.0318 23.0062 33.9196 23.0062C34.7992 23.0062 35.4913 23.6606 35.4913 24.5484C35.4913 25.3353 34.7585 25.8704 34.1224 26.2414L36.7053 29.3278C37.0223 29.6723 37.2241 29.7641 37.7103 29.7641H44.83V30.4684L37.7226 30.4735C36.7563 30.4735 36.4301 30.1524 35.8593 29.4308L35.7594 29.3034L35.684 29.2208ZM33.6597 25.6941C34.0898 25.4545 34.7442 25.0499 34.7442 24.5484C34.7489 24.438 34.731 24.3277 34.6914 24.2245C34.6519 24.1212 34.5917 24.0272 34.5144 23.9481C34.4372 23.869 34.3445 23.8066 34.2422 23.7647C34.1399 23.7228 34.0301 23.7023 33.9196 23.7044C33.4232 23.7044 33.0369 24.054 33.0369 24.5576C33.0369 24.845 33.2153 25.1651 33.3947 25.3791L33.6597 25.6941ZM18.0697 25.7043C18.4989 25.4637 19.1532 25.0601 19.1532 24.5576C19.158 24.4472 19.1401 24.337 19.1006 24.2338C19.0612 24.1307 19.001 24.0366 18.9239 23.9576C18.8467 23.8785 18.7542 23.8161 18.652 23.7741C18.5498 23.7322 18.4401 23.7116 18.3297 23.7136C17.8333 23.7136 17.4459 24.0642 17.4459 24.5678C17.4459 24.8552 17.6243 25.1753 17.8037 25.3893L18.0697 25.7043Z" fill="#E6E8E6"/>
<path fill-rule="evenodd" clip-rule="evenodd" d="M8.03187 24.6198V29.2014H7.67818V18.7976H11.7288C13.5493 18.7976 14.8611 19.824 14.8611 21.7087C14.8611 22.8543 14.2852 23.8074 13.2618 24.2793C14.1639 24.6921 14.5502 25.5279 14.5502 26.5268V29.2014H13.8571V26.5268C13.8571 25.162 12.9937 24.6198 11.7584 24.6198H8.03187ZM31.7149 23.9847C31.7149 26.9121 30.1727 29.2014 27.0751 29.2014H23.9031V18.7976H27.0751C30.2156 18.7976 31.7149 21.0084 31.7149 23.9847ZM40.3727 19.4907V29.2014H40.1841V19.0636H38.5339L38.1068 19.4907H33.6393V18.7976H44.7832V19.4907H40.3727ZM8.03187 19.4907V23.9409H11.7869C13.1242 23.9409 14.1527 23.1061 14.1527 21.7087C14.1527 20.2022 13.1731 19.4907 11.7288 19.4907H8.03187ZM24 19.4907V28.5083H27.0751C29.7854 28.5083 31.0218 26.5228 31.0218 23.9847C31.0218 21.3968 29.8282 19.4907 27.0751 19.4907H24Z" fill="#E6E8E6"/>
<path fill-rule="evenodd" clip-rule="evenodd" d="M40.1841 18.7976H37.9172V29.2157H40.1841V18.7976ZM39.0762 27.0008C39.0187 26.998 38.9613 27.0069 38.9074 27.0271C38.8535 27.0472 38.8042 27.0781 38.7627 27.1179C38.7211 27.1577 38.6881 27.2055 38.6656 27.2585C38.6431 27.3114 38.6317 27.3684 38.6319 27.426C38.6322 27.4835 38.6442 27.5404 38.6672 27.5931C38.6902 27.6459 38.7237 27.6934 38.7656 27.7328C38.8076 27.7721 38.8571 27.8026 38.9112 27.8222C38.9653 27.8418 39.0228 27.8502 39.0802 27.8468C39.1378 27.8479 39.1949 27.8374 39.2483 27.8161C39.3018 27.7948 39.3504 27.763 39.3914 27.7227C39.4324 27.6824 39.4649 27.6342 39.4871 27.5812C39.5093 27.5281 39.5207 27.4711 39.5206 27.4136C39.526 27.3253 39.5007 27.2378 39.4491 27.1659C39.3975 27.0941 39.3226 27.0422 39.2372 27.0192V27.0834C39.306 27.1055 39.3653 27.1501 39.4056 27.21C39.4459 27.2699 39.4648 27.3416 39.4594 27.4136C39.4593 27.4634 39.4493 27.5126 39.4298 27.5585C39.4104 27.6043 39.382 27.6458 39.3463 27.6805C39.3106 27.7151 39.2683 27.7423 39.2219 27.7604C39.1755 27.7784 39.1259 27.787 39.0762 27.7856V27.0008ZM39.016 27.7795C38.928 27.7703 38.8464 27.7288 38.7871 27.663C38.7279 27.5973 38.6951 27.5118 38.6951 27.4233C38.6951 27.3347 38.7279 27.2493 38.7871 27.1835C38.8464 27.1178 38.928 27.0763 39.016 27.0671V27.7795ZM39.2372 25.9887V26.0529C39.3042 26.0768 39.3617 26.1214 39.4017 26.1802C39.4416 26.239 39.4618 26.309 39.4594 26.3801C39.4539 26.4777 39.4112 26.5695 39.3401 26.6367C39.2691 26.7039 39.175 26.7413 39.0772 26.7413C38.9794 26.7413 38.8853 26.7039 38.8142 26.6367C38.7432 26.5695 38.7005 26.4777 38.695 26.3801C38.6938 26.3097 38.7143 26.2407 38.7537 26.1823C38.7931 26.124 38.8494 26.0792 38.9151 26.0539V25.9887C38.832 26.0144 38.7594 26.0665 38.7085 26.1371C38.6576 26.2077 38.631 26.293 38.6328 26.3801C38.6382 26.4941 38.6874 26.6017 38.7701 26.6805C38.8527 26.7592 38.9625 26.8032 39.0767 26.8032C39.1909 26.8032 39.3007 26.7592 39.3833 26.6805C39.466 26.6017 39.5151 26.4941 39.5206 26.3801C39.5223 26.2929 39.4956 26.2075 39.4445 26.1369C39.3933 26.0663 39.3206 26.0142 39.2372 25.9887ZM38.9895 24.9826C38.9424 24.9776 38.8948 24.983 38.85 24.9984C38.8052 25.0139 38.7643 25.039 38.7303 25.0719C38.6963 25.1049 38.6699 25.1449 38.6531 25.1892C38.6362 25.2335 38.6293 25.2809 38.6328 25.3282C38.6309 25.389 38.6451 25.4493 38.6739 25.503C38.7027 25.5567 38.7451 25.6018 38.7969 25.6339H38.2771V25.6951H39.5012V25.6339H38.9895C38.9498 25.6342 38.9103 25.6265 38.8736 25.6112C38.8369 25.5959 38.8037 25.5733 38.7759 25.5449C38.7481 25.5164 38.7263 25.4827 38.7119 25.4456C38.6975 25.4085 38.6907 25.3689 38.6919 25.3292C38.6885 25.2898 38.694 25.2501 38.708 25.2131C38.7219 25.1761 38.744 25.1427 38.7725 25.1154C38.8011 25.088 38.8354 25.0674 38.8729 25.055C38.9105 25.0426 38.9503 25.0388 38.9895 25.0438H39.5012V24.9826H38.9895ZM38.9895 23.9307C38.9425 23.9256 38.8949 23.9309 38.8501 23.9462C38.8053 23.9615 38.7645 23.9865 38.7304 24.0194C38.6964 24.0523 38.67 24.0922 38.6531 24.1364C38.6362 24.1807 38.6293 24.228 38.6328 24.2752C38.6308 24.3363 38.645 24.3968 38.6738 24.4506C38.7026 24.5045 38.745 24.5498 38.7969 24.582H38.6542V24.6422H39.5012V24.582H38.9895C38.9498 24.5823 38.9103 24.5746 38.8736 24.5593C38.8369 24.544 38.8037 24.5214 38.7759 24.493C38.7481 24.4645 38.7263 24.4308 38.7119 24.3937C38.6975 24.3566 38.6907 24.317 38.6919 24.2773C38.6885 24.2378 38.6939 24.1981 38.7078 24.161C38.7217 24.1239 38.7438 24.0904 38.7723 24.063C38.8008 24.0355 38.8352 24.0148 38.8728 24.0023C38.9103 23.9898 38.9502 23.9859 38.9895 23.9909H39.5012V23.9307H38.9895ZM39.0762 22.8166C39.1591 22.8206 39.239 22.8489 39.306 22.8979C39.3731 22.9469 39.4242 23.0145 39.4532 23.0923C39.4821 23.1701 39.4876 23.2547 39.4689 23.3355C39.4503 23.4164 39.4083 23.4901 39.3481 23.5473C39.288 23.6045 39.2124 23.6429 39.1307 23.6575C39.049 23.6722 38.9647 23.6625 38.8885 23.6298C38.8122 23.597 38.7472 23.5426 38.7016 23.4732C38.6559 23.4039 38.6317 23.3227 38.6318 23.2396C38.6347 23.1246 38.6831 23.0155 38.7664 22.9362C38.8498 22.8569 38.9612 22.8139 39.0762 22.8166ZM39.0762 22.8798C39.1467 22.8845 39.2144 22.9096 39.2709 22.9522C39.3274 22.9948 39.3701 23.0529 39.394 23.1195C39.4178 23.1861 39.4217 23.2582 39.405 23.3269C39.3884 23.3957 39.3521 23.4581 39.3004 23.5064C39.2488 23.5548 39.1842 23.587 39.1145 23.5991C39.0448 23.6111 38.9732 23.6026 38.9083 23.5745C38.8434 23.5463 38.7881 23.4998 38.7493 23.4407C38.7105 23.3816 38.6899 23.3124 38.6899 23.2417C38.6934 23.1426 38.7359 23.0488 38.8083 22.981C38.8807 22.9132 38.977 22.8768 39.0762 22.8798ZM38.2781 22.4752H39.5012V22.5363H38.2781V22.4752ZM39.0762 21.3479C39.159 21.3518 39.2389 21.3801 39.3059 21.429C39.3729 21.478 39.4241 21.5455 39.4531 21.6232C39.4821 21.701 39.4876 21.7855 39.469 21.8664C39.4504 21.9473 39.4085 22.0209 39.3485 22.0782C39.2885 22.1354 39.2129 22.1739 39.1313 22.1886C39.0497 22.2034 38.9655 22.1939 38.8892 22.1613C38.8129 22.1287 38.7478 22.0744 38.702 22.0052C38.6563 21.936 38.6319 21.8548 38.6318 21.7719C38.6331 21.7148 38.6457 21.6587 38.6687 21.6065C38.6918 21.5543 38.7249 21.5072 38.7661 21.4678C38.8074 21.4284 38.856 21.3976 38.9092 21.377C38.9624 21.3564 39.0191 21.3465 39.0762 21.3479ZM39.0762 21.4121C39.1466 21.4168 39.2142 21.442 39.2705 21.4846C39.3268 21.5272 39.3695 21.5853 39.3932 21.6519C39.4169 21.7184 39.4206 21.7904 39.4039 21.859C39.3872 21.9276 39.3508 21.9899 39.2992 22.0381C39.2476 22.0863 39.183 22.1183 39.1134 22.1303C39.0438 22.1423 38.9723 22.1337 38.9075 22.1055C38.8428 22.0773 38.7877 22.0308 38.749 21.9717C38.7103 21.9126 38.6898 21.8435 38.6899 21.7729C38.6934 21.6739 38.736 21.5803 38.8085 21.5127C38.8809 21.445 38.9771 21.4089 39.0762 21.4121ZM38.6542 20.297V20.3581H38.853C38.786 20.3911 38.7297 20.4425 38.6908 20.5062C38.6518 20.5698 38.6317 20.6433 38.6328 20.7179C38.6388 20.8319 38.6882 20.9392 38.771 21.0178C38.8538 21.0963 38.9636 21.1401 39.0777 21.1401C39.1918 21.1401 39.3016 21.0963 39.3844 21.0178C39.4672 20.9392 39.5166 20.8319 39.5226 20.7179C39.5235 20.6435 39.5034 20.5702 39.4646 20.5066C39.4259 20.443 39.37 20.3915 39.3035 20.3581H39.4778C39.5267 20.3534 39.5761 20.3592 39.6227 20.3752C39.6692 20.3912 39.7117 20.417 39.7475 20.4508C39.7832 20.4846 39.8113 20.5256 39.8298 20.5712C39.8483 20.6167 39.8569 20.6657 39.8549 20.7149C39.8597 20.7861 39.8411 20.8569 39.8019 20.9165C39.7627 20.9762 39.7051 21.0213 39.6378 21.0451V21.1093C39.7222 21.0853 39.7958 21.033 39.8463 20.9612C39.8968 20.8894 39.9211 20.8024 39.915 20.7149C39.917 20.6578 39.9069 20.6009 39.8854 20.548C39.8639 20.4951 39.8314 20.4474 39.7901 20.4079C39.7488 20.3684 39.6996 20.3381 39.6458 20.319C39.592 20.2999 39.5347 20.2924 39.4778 20.297H38.6542ZM39.0782 20.3571C39.1489 20.361 39.217 20.3855 39.2739 20.4276C39.3308 20.4698 39.3741 20.5276 39.3985 20.5941C39.4229 20.6606 39.4273 20.7328 39.4111 20.8017C39.3949 20.8707 39.3589 20.9334 39.3074 20.9821C39.256 21.0307 39.1914 21.0633 39.1217 21.0757C39.052 21.0881 38.9802 21.0798 38.9151 21.0518C38.8501 21.0238 38.7946 20.9773 38.7557 20.9182C38.7167 20.859 38.696 20.7898 38.696 20.719C38.6988 20.6203 38.7406 20.5268 38.8123 20.459C38.8839 20.3911 38.9796 20.3545 39.0782 20.3571ZM38.6542 19.2746V19.3368H39.1648C39.243 19.3368 39.3179 19.3678 39.3731 19.4231C39.4284 19.4783 39.4594 19.5532 39.4594 19.6314C39.4594 19.7095 39.4284 19.7844 39.3731 19.8397C39.3179 19.8949 39.243 19.9259 39.1648 19.9259H38.6542V19.9871H39.1648C39.212 19.9887 39.259 19.9806 39.3028 19.9633C39.3467 19.946 39.3866 19.9198 39.4199 19.8865C39.4533 19.8531 39.4794 19.8133 39.4967 19.7694C39.5141 19.7255 39.5222 19.6785 39.5206 19.6314C39.5229 19.5724 39.5093 19.5139 39.4811 19.4621C39.453 19.4102 39.4113 19.3669 39.3606 19.3368H39.5603C39.6316 19.3359 39.7007 19.3611 39.7545 19.4077C39.8084 19.4543 39.8433 19.5191 39.8526 19.5897C39.8619 19.6603 39.845 19.7319 39.805 19.7909C39.765 19.8499 39.7048 19.8921 39.6358 19.9096V19.9739C39.7212 19.9554 39.7967 19.9061 39.8479 19.8352C39.899 19.7644 39.9221 19.6772 39.9128 19.5903C39.9034 19.5034 39.8622 19.4231 39.7971 19.3648C39.732 19.3065 39.6477 19.2744 39.5603 19.2746H38.6542ZM39.0762 28.0731V28.1342H39.1801C39.2543 28.1342 39.3255 28.1637 39.378 28.2162C39.4305 28.2687 39.4599 28.3398 39.4599 28.414C39.4599 28.4882 39.4305 28.5594 39.378 28.6119C39.3255 28.6644 39.2543 28.6938 39.1801 28.6938H38.7143V28.1027H38.6542V28.6938H38.4728V28.754H39.1801C39.2704 28.754 39.357 28.7181 39.4209 28.6543C39.4847 28.5904 39.5206 28.5038 39.5206 28.4135C39.5206 28.3232 39.4847 28.2366 39.4209 28.1728C39.357 28.109 39.2704 28.0731 39.1801 28.0731H39.0762Z" fill="#E6E8E6"/>
<path fill-rule="evenodd" clip-rule="evenodd" d="M8.0237 18.7976H5.75681V29.2157H8.0237V18.7976ZM6.9565 26.5442C6.87645 26.5402 6.79644 26.5526 6.72134 26.5806C6.64624 26.6086 6.57762 26.6516 6.51968 26.707C6.46173 26.7624 6.41566 26.829 6.38427 26.9027C6.35289 26.9765 6.33684 27.0558 6.33712 27.136C6.3374 27.2161 6.35399 27.2954 6.38588 27.3689C6.41778 27.4424 6.46431 27.5087 6.52264 27.5637C6.58097 27.6186 6.64988 27.6611 6.72517 27.6886C6.80046 27.7161 6.88056 27.7279 6.96058 27.7235C7.04081 27.725 7.12055 27.7105 7.19513 27.6809C7.2697 27.6512 7.33763 27.607 7.39494 27.5509C7.45226 27.4947 7.49781 27.4277 7.52893 27.3537C7.56006 27.2797 7.57613 27.2003 7.57622 27.1201C7.58362 26.9968 7.54833 26.8748 7.4763 26.7746C7.40427 26.6743 7.29989 26.6019 7.18075 26.5696V26.6583C7.27671 26.6894 7.35944 26.7518 7.41564 26.8355C7.47184 26.9193 7.49825 27.0195 7.49061 27.1201C7.49032 27.1894 7.47619 27.258 7.44906 27.3218C7.42192 27.3856 7.38232 27.4434 7.33258 27.4917C7.28283 27.54 7.22396 27.5779 7.15938 27.6032C7.0948 27.6285 7.02583 27.6406 6.9565 27.6389V26.5442ZM6.87088 27.6297C6.74777 27.6172 6.63368 27.5595 6.55072 27.4677C6.46775 27.3759 6.42182 27.2565 6.42182 27.1328C6.42182 27.0091 6.46775 26.8897 6.55072 26.7979C6.63368 26.7061 6.74777 26.6484 6.87088 26.6359V27.6297ZM7.21336 25.4525C6.97485 25.4637 6.91064 25.691 6.87394 25.9367C6.83725 26.1986 6.79342 26.322 6.65785 26.324C6.52025 26.3271 6.4173 26.1752 6.4173 25.9622C6.4173 25.7491 6.50904 25.6156 6.66702 25.5667V25.48C6.45399 25.53 6.33678 25.7022 6.33678 25.9642C6.33678 26.2598 6.49783 26.4117 6.65785 26.4117C6.89229 26.4066 6.92694 26.1548 6.9565 25.9499C6.99728 25.6615 7.07066 25.5442 7.2154 25.5392C7.24514 25.5368 7.27505 25.5407 7.30316 25.5508C7.33126 25.5608 7.35693 25.5766 7.37848 25.5972C7.41876 25.6419 7.44985 25.694 7.46997 25.7507C7.49008 25.8074 7.49882 25.8674 7.4957 25.9275C7.4957 26.1772 7.3948 26.3474 7.20419 26.3882V26.4738C7.44474 26.4341 7.57622 26.2231 7.57622 25.9255C7.58386 25.7822 7.53438 25.6418 7.43862 25.5351C7.37735 25.4789 7.29639 25.4493 7.21336 25.4525ZM6.9565 24.1519C6.87645 24.148 6.79644 24.1604 6.72134 24.1884C6.64624 24.2164 6.57762 24.2594 6.51968 24.3147C6.46173 24.3701 6.41566 24.4367 6.38427 24.5104C6.35289 24.5842 6.33684 24.6636 6.33712 24.7437C6.3374 24.8239 6.35399 24.9031 6.38588 24.9766C6.41778 25.0502 6.46431 25.1164 6.52264 25.1714C6.58097 25.2264 6.64988 25.2689 6.72517 25.2964C6.80046 25.3238 6.88056 25.3357 6.96058 25.3312C7.04081 25.3327 7.12055 25.3182 7.19513 25.2886C7.2697 25.259 7.33763 25.2148 7.39494 25.1586C7.45226 25.1024 7.49781 25.0354 7.52893 24.9614C7.56006 24.8875 7.57613 24.808 7.57622 24.7278C7.58346 24.6046 7.54812 24.4827 7.47611 24.3825C7.4041 24.2822 7.29981 24.2098 7.18075 24.1774V24.2671C7.27663 24.2979 7.35933 24.3601 7.41554 24.4437C7.47175 24.5273 7.49819 24.6274 7.49061 24.7278C7.4905 24.7972 7.4765 24.8659 7.44942 24.9298C7.42235 24.9937 7.38275 25.0515 7.33297 25.0998C7.2832 25.1482 7.22424 25.1861 7.15958 25.2113C7.09493 25.2365 7.02588 25.2485 6.9565 25.2466V24.1519ZM6.87088 25.2374C6.74939 25.222 6.63746 25.1635 6.55537 25.0727C6.47328 24.9818 6.42646 24.8645 6.42341 24.7421C6.42699 24.6195 6.47392 24.5021 6.55585 24.4109C6.63777 24.3196 6.74939 24.2604 6.87088 24.2436V25.2374ZM6.36634 22.8809V22.9665H6.65377C6.55928 23.0128 6.47956 23.0846 6.42357 23.1737C6.36758 23.2628 6.33752 23.3658 6.33678 23.471C6.34442 23.6302 6.41305 23.7804 6.52843 23.8904C6.64382 24.0004 6.7971 24.0617 6.9565 24.0617C7.1159 24.0617 7.26919 24.0004 7.38457 23.8904C7.49996 23.7804 7.56858 23.6302 7.57622 23.471C7.57586 23.3662 7.54641 23.2635 7.49117 23.1745C7.43592 23.0854 7.35705 23.0134 7.26331 22.9665H7.54871V22.8809H6.36634ZM6.96058 22.9665C7.05903 22.9726 7.15353 23.0075 7.23243 23.0667C7.31133 23.1259 7.37119 23.2069 7.40462 23.2997C7.43806 23.3925 7.44361 23.4931 7.42059 23.589C7.39758 23.6849 7.34701 23.772 7.2751 23.8396C7.2032 23.9071 7.11311 23.9521 7.01594 23.9691C6.91876 23.986 6.81874 23.9742 6.72821 23.935C6.63768 23.8959 6.56058 23.8311 6.50642 23.7486C6.45227 23.6662 6.42341 23.5697 6.42341 23.471C6.42539 23.4026 6.44088 23.3352 6.46897 23.2727C6.49707 23.2103 6.53722 23.154 6.58714 23.1071C6.63705 23.0602 6.69574 23.0237 6.75983 22.9995C6.82391 22.9754 6.89214 22.9642 6.96058 22.9665ZM6.84132 21.6332C6.77486 21.6298 6.7084 21.6402 6.64617 21.6639C6.58395 21.6875 6.52731 21.7238 6.47987 21.7705C6.43242 21.8172 6.3952 21.8732 6.37057 21.935C6.34594 21.9968 6.33443 22.0631 6.33678 22.1296C6.33517 22.2128 6.35576 22.2949 6.39643 22.3675C6.4371 22.44 6.49638 22.5004 6.56816 22.5425H6.36634V22.6271H7.54871V22.5425H6.84132C6.78628 22.5447 6.73138 22.5355 6.68001 22.5157C6.62864 22.4958 6.58191 22.4655 6.54273 22.4268C6.50354 22.3881 6.47272 22.3417 6.4522 22.2906C6.43168 22.2395 6.42188 22.1847 6.42341 22.1296C6.42071 22.0744 6.42972 22.0192 6.44986 21.9676C6.47 21.9161 6.50082 21.8694 6.54029 21.8306C6.57975 21.7918 6.62698 21.7618 6.67886 21.7425C6.73074 21.7233 6.78611 21.7152 6.84132 21.7189H6.91777V21.6332H6.84132ZM7.18075 20.402V20.4917C7.27415 20.5251 7.35451 20.5873 7.41021 20.6694C7.46591 20.7515 7.49407 20.8492 7.49061 20.9483C7.48306 21.0847 7.42356 21.2131 7.32431 21.307C7.22507 21.4009 7.09364 21.4532 6.95701 21.4532C6.82039 21.4532 6.68895 21.4009 6.58971 21.307C6.49047 21.2131 6.43096 21.0847 6.42341 20.9483C6.42175 20.8501 6.45042 20.7537 6.5055 20.6724C6.56059 20.591 6.63941 20.5286 6.73124 20.4937V20.402C6.61522 20.4381 6.51406 20.5108 6.44293 20.6094C6.3718 20.7079 6.33455 20.8268 6.33678 20.9483C6.34442 21.1075 6.41305 21.2577 6.52843 21.3677C6.64382 21.4776 6.7971 21.539 6.9565 21.539C7.1159 21.539 7.26919 21.4776 7.38457 21.3677C7.49996 21.2577 7.56858 21.1075 7.57622 20.9483C7.57874 20.8266 7.54148 20.7074 7.4701 20.6088C7.39873 20.5102 7.29714 20.4376 7.18075 20.402ZM6.83419 19.3429C6.52738 19.3429 6.33678 19.5213 6.33678 19.824C6.33433 19.909 6.35423 19.9932 6.39447 20.0682C6.43471 20.1431 6.49389 20.2062 6.56612 20.2511H5.84141V20.3357H7.54871V20.2511H6.83419C6.77878 20.2517 6.72383 20.241 6.67264 20.2198C6.62146 20.1985 6.57509 20.1672 6.53634 20.1276C6.49759 20.0879 6.46725 20.0409 6.44714 19.9893C6.42704 19.9376 6.41758 19.8825 6.41934 19.8271C6.41934 19.5672 6.57529 19.4275 6.83419 19.4275H7.54871V19.3429H6.83419ZM6.84132 27.8081C6.77491 27.8045 6.70847 27.8148 6.64625 27.8383C6.58402 27.8618 6.52737 27.898 6.47991 27.9446C6.43245 27.9912 6.39521 28.0472 6.37057 28.109C6.34592 28.1707 6.33442 28.237 6.33678 28.3034C6.33517 28.3866 6.35576 28.4687 6.39643 28.5413C6.4371 28.6138 6.49638 28.6742 6.56816 28.7162H6.36634V28.8009H7.54871V28.7162H6.84132C6.78628 28.7185 6.73138 28.7093 6.68001 28.6894C6.62864 28.6696 6.58191 28.6393 6.54273 28.6006C6.50354 28.5619 6.47272 28.5155 6.4522 28.4644C6.43168 28.4133 6.42188 28.3585 6.42341 28.3034C6.42071 28.2482 6.42972 28.193 6.44986 28.1414C6.47 28.0899 6.50082 28.0432 6.54029 28.0044C6.57975 27.9656 6.62698 27.9356 6.67886 27.9163C6.73074 27.8971 6.78611 27.889 6.84132 27.8927H6.91777V27.8081H6.84132Z" fill="#E6E8E6"/>
<path fill-rule="evenodd" clip-rule="evenodd" d="M21.6373 18.7976H23.949V29.2157H21.6373V18.7976ZM21.8024 27.8376V27.909H22.4904C22.4105 27.9486 22.3431 28.0095 22.2958 28.0851C22.2485 28.1607 22.2231 28.2479 22.2223 28.3371C22.2288 28.4718 22.2869 28.5988 22.3846 28.6918C22.4822 28.7849 22.6119 28.8368 22.7468 28.8368C22.8816 28.8368 23.0113 28.7849 23.1089 28.6918C23.2066 28.5988 23.2647 28.4718 23.2712 28.3371C23.2708 28.2483 23.246 28.1614 23.1994 28.0859C23.1528 28.0103 23.0863 27.9491 23.0072 27.909H23.2477V27.8376H21.8024ZM22.7473 25.9142C22.6794 25.9108 22.6116 25.9213 22.5479 25.9449C22.4843 25.9686 22.4261 26.005 22.3769 26.0519C22.3278 26.0987 22.2887 26.1551 22.262 26.2176C22.2354 26.2801 22.2218 26.3474 22.222 26.4153C22.2222 26.4832 22.2362 26.5504 22.2632 26.6127C22.2903 26.6751 22.3297 26.7312 22.3791 26.7778C22.4286 26.8244 22.487 26.8604 22.5508 26.8837C22.6146 26.9069 22.6825 26.917 22.7503 26.9131C22.8182 26.9144 22.8857 26.9021 22.9488 26.8771C23.0119 26.852 23.0694 26.8146 23.1178 26.767C23.1663 26.7195 23.2049 26.6628 23.2312 26.6002C23.2575 26.5376 23.2711 26.4704 23.2712 26.4025C23.2776 26.2981 23.2478 26.1947 23.1869 26.1097C23.126 26.0247 23.0377 25.9632 22.9369 25.9357V26.0121C23.0181 26.0383 23.0882 26.091 23.1359 26.1618C23.1836 26.2326 23.2061 26.3173 23.1998 26.4025C23.1996 26.4612 23.1877 26.5193 23.1647 26.5734C23.1417 26.6275 23.1081 26.6764 23.066 26.7173C23.0238 26.7583 22.9739 26.7903 22.9192 26.8117C22.8644 26.8331 22.806 26.8433 22.7473 26.8418V25.9142ZM22.6749 26.8336C22.5709 26.8229 22.4745 26.7739 22.4045 26.6963C22.3345 26.6186 22.2957 26.5178 22.2957 26.4132C22.2957 26.3086 22.3345 26.2077 22.4045 26.1301C22.4745 26.0524 22.5709 26.0035 22.6749 25.9927V26.8336ZM22.9644 24.2131C22.7626 24.2233 22.7075 24.4159 22.6769 24.6238C22.6453 24.845 22.6086 24.95 22.4945 24.952C22.3773 24.9541 22.2896 24.8257 22.2896 24.6452C22.2896 24.4648 22.3681 24.3517 22.5016 24.3109V24.2365C22.3212 24.2793 22.2223 24.4251 22.2223 24.6463C22.2223 24.897 22.3579 25.0254 22.4945 25.0254C22.6922 25.0214 22.7218 24.8083 22.7473 24.635C22.7819 24.3904 22.8441 24.2915 22.9664 24.2875C22.9914 24.2853 23.0166 24.2884 23.0404 24.2967C23.0641 24.3049 23.0858 24.3181 23.104 24.3354C23.1724 24.4123 23.2078 24.5129 23.2029 24.6157C23.2029 24.8277 23.1173 24.9714 22.9562 25.0061V25.0774C23.1611 25.0448 23.2712 24.8664 23.2712 24.6136C23.2774 24.4925 23.2357 24.3739 23.155 24.2834C23.1295 24.2596 23.0995 24.2411 23.0668 24.229C23.034 24.217 22.9992 24.2115 22.9644 24.2131ZM21.8992 23.1357V23.208H22.0786V23.1357H21.8992ZM22.2478 23.1357V23.208H23.2477V23.1357H22.2478ZM22.2478 21.3122V21.3845H22.4823C22.4032 21.4236 22.3369 21.4843 22.2909 21.5595C22.2449 21.6347 22.2211 21.7214 22.2223 21.8096C22.2294 21.9442 22.2878 22.071 22.3855 22.1638C22.4833 22.2566 22.613 22.3084 22.7478 22.3084C22.8826 22.3084 23.0122 22.2566 23.11 22.1638C23.2078 22.071 23.2662 21.9442 23.2732 21.8096C23.2744 21.7216 23.2508 21.635 23.205 21.5598C23.1592 21.4846 23.0931 21.4239 23.0143 21.3845H23.2202C23.4903 21.3845 23.6656 21.5497 23.6656 21.8055C23.6716 21.8898 23.6497 21.9736 23.6032 22.0441C23.5568 22.1147 23.4885 22.168 23.4088 22.1959V22.2723C23.5089 22.2442 23.5963 22.1824 23.6563 22.0974C23.7162 22.0124 23.7451 21.9093 23.738 21.8055C23.738 21.5099 23.5301 21.3122 23.2202 21.3122H22.2478ZM22.7503 21.3845C22.8082 21.3809 22.8663 21.3892 22.9209 21.4089C22.9754 21.4287 23.0253 21.4595 23.0675 21.4993C23.1097 21.5392 23.1432 21.5873 23.1659 21.6407C23.1887 21.6941 23.2002 21.7516 23.1998 21.8096C23.1933 21.9251 23.1429 22.0337 23.0588 22.1132C22.9748 22.1927 22.8635 22.2369 22.7478 22.2369C22.6321 22.2369 22.5208 22.1927 22.4367 22.1132C22.3527 22.0337 22.3022 21.9251 22.2957 21.8096C22.2957 21.7512 22.3076 21.6935 22.3308 21.6399C22.354 21.5863 22.388 21.5381 22.4306 21.4983C22.4733 21.4584 22.5237 21.4277 22.5787 21.4082C22.6337 21.3886 22.6921 21.3806 22.7503 21.3845ZM22.6433 19.3521C22.3834 19.3521 22.2223 19.504 22.2223 19.7608C22.2202 19.8327 22.237 19.9038 22.271 19.9671C22.305 20.0304 22.355 20.0837 22.416 20.1217H22.2478V20.194H23.2477V20.1217H22.6433C22.5964 20.1221 22.5499 20.1131 22.5065 20.0952C22.4632 20.0772 22.4239 20.0507 22.391 20.0172C22.3582 19.9837 22.3325 19.9439 22.3154 19.9002C22.2983 19.8565 22.2902 19.8098 22.2917 19.7629C22.2917 19.5427 22.4242 19.4245 22.6433 19.4245H23.2477V19.3521H22.6433ZM22.7503 27.909C22.8337 27.9142 22.9137 27.9436 22.9805 27.9937C23.0473 28.0437 23.0981 28.1122 23.1265 28.1908C23.1548 28.2693 23.1596 28.3544 23.1402 28.4357C23.1208 28.5169 23.0781 28.5907 23.0173 28.6479C22.9565 28.7052 22.8803 28.7434 22.7981 28.7579C22.7158 28.7724 22.6312 28.7625 22.5545 28.7294C22.4778 28.6964 22.4124 28.6417 22.3664 28.5719C22.3205 28.5022 22.2959 28.4206 22.2957 28.3371C22.2974 28.2791 22.3104 28.222 22.3342 28.1691C22.358 28.1162 22.3919 28.0684 22.4342 28.0287C22.4764 27.9889 22.5261 27.9579 22.5803 27.9373C22.6346 27.9168 22.6923 27.9072 22.7503 27.909Z" fill="#E6E8E6"/>
</svg>
